<svg xmlns="http://www.w3.org/2000/svg" viewBox="0 0 392.37 385.37"><path d="M426.94,436.22a91,91,0,0,1,3.09-12.4,129.85,129.85,0,0,1,6-13.25q3.5,8.31,4.73,12.23a22.56,22.56,0,0,1,1.24,6.63,16.57,16.57,0,0,1,1.43-5.61,78,78,0,0,1,4.74-8.66q3.78,6.82,5.34,10.36t3.91,10.7Zm-71.74,13a109.34,109.34,0,0,1,2.56-12.4q1.28-4.37,4.94-13.25,2.9,8.33,3.92,12.23a27.15,27.15,0,0,1,1,6.63,19.35,19.35,0,0,1,1.19-5.61,87.54,87.54,0,0,1,3.92-8.66q3.15,6.82,4.43,10.36t3.24,10.7Z" transform="translate(-87.38 -90.86)" style="fill:#ff946a;fill-rule:evenodd"/><path d="M329,439.89V417h24.24v22.86" transform="translate(-87.38 -90.86)" style="fill:#f4e5ad;fill-rule:evenodd"/><path d="M378.2,440.87V426.52H410v19.21" transform="translate(-87.38 -90.86)" style="fill:#f4e5ad;fill-rule:evenodd"/><path d="M409.7,474.44V435.52h44.11v38.71" transform="translate(-87.38 -90.86)" style="fill:#f4e5ad;fill-rule:evenodd"/><path d="M326.58,455V431.63h4.85v4.13h2.9v-4.13h5.1v4.13h2.9v-4.13h5.09v4.13h2.91v-4.13h6.06v24.81" transform="translate(-87.38 -90.86)" style="fill:#afa26e;fill-rule:evenodd"/><path d="M449.93,474.44V417h23.76v57.09" transform="translate(-87.38 -90.86)" style="fill:#daca8b;fill-rule:evenodd"/><path d="M321.73,454.49V474.2h41.2v-6.37a13.33,13.33,0,1,1,26.66,0v6.37h22.3V435.76h-6.3l-1,5.11h-4.37v-5.11h-8.48v5.11h-4.36v-5.11h-8.24v5.11h-4.12v-5.11h-8.24v7.79h-8l-7.51,10.94Z" transform="translate(-87.38 -90.86)" style="fill:#daca8b;fill-rule:evenodd"/><path d="M319.55,469.58h45.56v4.86H319.55Zm68.83,0h25.69v4.86H388.38Z" transform="translate(-87.38 -90.86)" style="fill:#afa26e;fill-rule:evenodd"/><path d="M334.33,449.63v-7.8a1.94,1.94,0,0,1,3.88,0v7.8Zm90.4,12.16V454a1.94,1.94,0,1,1,3.88,0v7.79Zm-80-12.16v-7.8a1.94,1.94,0,1,1,3.87,0v7.8Zm90.39,12.16V454a1.94,1.94,0,1,1,3.88,0v7.79Zm25-21.9V432.1a1.94,1.94,0,1,1,3.88,0v7.79Zm0,21.42v-7.8a1.94,1.94,0,1,1,3.88,0v7.8Zm-61.55,8.27v-7.8a3.39,3.39,0,0,1,6.78,0v7.8Z" transform="translate(-87.38 -90.86)" style="fill:#334e62;fill-rule:evenodd"/><path d="M387.48,398l7.44-16.71L404.59,403c.74,1.33,1.48,2.61,2.2,3.86q4,6.79,12.12,19.71a220.1,220.1,0,0,1-24.36,1.87A226.23,226.23,0,0,1,370,426.52q9-13.12,12.84-19.71Q385.18,402.75,387.48,398ZM323.43,417a33.88,33.88,0,0,0,8.72-12.66q2.33-6.47,9.21-23.84,6.87,17.06,9.21,23.84A32.06,32.06,0,0,0,359.06,417a106.14,106.14,0,0,1-17.94,1.46A101.73,101.73,0,0,1,323.43,417Zm120.69,1a33.73,33.73,0,0,0,8.72-12.65q2.32-6.48,9.21-23.85,6.87,17.06,9.21,23.85A32.1,32.1,0,0,0,479.74,418a105.94,105.94,0,0,1-17.93,1.46A101.73,101.73,0,0,1,444.12,418Z" transform="translate(-87.38 -90.86)" style="fill:#334e62;fill-rule:evenodd"/><path d="M368.42,254.8q8.58,31.31-1.78,50.76t-7.86,49.07L376,332.71q-.37,18.89.47,28.84a100.4,100.4,0,0,0,3.66,19.61l8.38-18.52a94.42,94.42,0,0,0,12,20.3q6.5,8.13,21.09,21.08,2.73-19.75,2.63-30a70,70,0,0,0-3.12-20l11.84,12.51A32.45,32.45,0,0,0,430.56,349Q427,341,420.37,327.1L439,341.39q-8.53-26.29-31.06-44t-27.56-41.85A16.64,16.64,0,0,0,375,254,23.36,23.36,0,0,0,368.42,254.8Z" transform="translate(-87.38 -90.86)" style="fill:#ff946a;fill-rule:evenodd"/><path d="M373.61,254.85q3.83,17.23,5.8,28.59,1.33,7.65,2.58,22.23a43.41,43.41,0,0,0,12.64,27.1l6.28,6.26.8-3.13a43.44,43.44,0,0,0-4.33-32.29q-7.12-12.5-10.84-20.41a183.39,183.39,0,0,1-10.42-29.1Z" transform="translate(-87.38 -90.86)" style="fill:#ffe676;fill-rule:evenodd"/><path d="M300.86,374.77q-2.94,7.25-5.57,10.32c-.92,1.07-2.09,2.34-3.52,3.78a1,1,0,0,1-1.46,0,1,1,0,0,1-.2-1.21l2.28-4.48a1,1,0,0,0-.44-1.35l-.17-.07a1.58,1.58,0,0,0-1.79.7l-4.92,8.18a.87.87,0,0,1-1.61-.54l1-9.19,6.95-9.48Z" transform="translate(-87.38 -90.86)" style="fill:#437ba6;fill-rule:evenodd"/><path d="M213.9,369.55l-37-45.5L111,344.48a1.3,1.3,0,0,0,.26,2.54l32.49,3.1L152.2,368a1.3,1.3,0,0,0,1.66.66l19.3-7.76,14.2,11a1.36,1.36,0,0,0,.8.28l20.37.08Z" transform="translate(-87.38 -90.86)" style="fill:#334e62;fill-rule:evenodd"/><path d="M258,363l14.48,21.33,4.92-11.81a11.31,11.31,0,0,1,19.25-2.74l4.26,5.3-4-.05a7.38,7.38,0,0,0-6.44,3.58l-14.51,24.17-17.29-12.47,1.21,47.22,13,13L286,453.55a2.17,2.17,0,0,1,.57,4l-19.39,11h0a10.87,10.87,0,0,1-14.81-4.12l-13.85-24.52H224.12v26l8.52,4.76a1.74,1.74,0,0,1-.85,3.26H202.08a7.42,7.42,0,0,1-.94-.06,7.83,7.83,0,0,1-6.83-8.71l3.07-25.23-45.64,24.31a21.1,21.1,0,0,1-7.09,2.27L87.38,474,177,406.89l21.33-48.09a11,11,0,0,1,1.22-2.08h-.79l8-189.35a43.49,43.49,0,0,1,42.36-41.63l120.68-3q34.56-1.08,34.56,39.57,0,6.1-14.13,65.22a14.32,14.32,0,0,1,1.24,20.22c-.34.38-.68.73-1.05,1.07l-.09.08a19.18,19.18,0,0,1-3,2.32l.4,2.31a5.66,5.66,0,0,1-7.28,6.34l-6.64-2.1-5.2,3a5.43,5.43,0,0,1-1.78.68,5.66,5.66,0,0,1-6.63-4.48l-1.58-8.15-.1,0-9.78-21.3L311.73,198l-30.15-1.8a7.82,7.82,0,0,0-8.25,7l-15.58,152Z" transform="translate(-87.38 -90.86)" style="fill:#7ac6ff;fill-rule:evenodd"/><path d="M392.65,204c2.24-1.78,7.6-.26,7.22,4s-3.38,11-8.46,6.74S390.41,205.83,392.65,204Zm-41.33,1.62c1.09-2.65,6.52-3.91,8.26,0s2.39,11.3-4.13,10S350.23,208.31,351.32,205.66Z" transform="translate(-87.38 -90.86)" style="fill:#fff;fill-rule:evenodd"/><path d="M390.88,210.48a1.09,1.09,0,0,1,1.11-1.07l4.78.09a1.09,1.09,0,0,1,0,2.17l-4.78-.08A1.09,1.09,0,0,1,390.88,210.48Zm-38.07,0a1.1,1.1,0,0,1,1.11-1.07l4.78.08a1.09,1.09,0,1,1,0,2.18l-4.78-.09A1.08,1.08,0,0,1,352.81,210.51Z" transform="translate(-87.38 -90.86)" style="fill:#334e62;fill-rule:evenodd"/><path d="M197.23,439.66l-6.81,36.56,41.5-.22a3.47,3.47,0,0,0,3.46-3.49,3.4,3.4,0,0,0-.44-1.68l-.53-.95-8.75-4.14L224.2,439.9Z" transform="translate(-87.38 -90.86)" style="fill:#437ba6;fill-rule:evenodd"/><path d="M185.49,315.79l-57.37,9.41a1.31,1.31,0,0,0-.1,2.56l37.12,8.88,2.69,18.28a1.3,1.3,0,0,0,1.41,1.11l27.4-2.49,6.2,13.11a1.31,1.31,0,0,0,1,.74l25.47,3.2,4.39,4.78a2.06,2.06,0,0,0,2.64.32,1.94,1.94,0,0,0,.64-2.52l-1.92-3.7c-.12-.22-.23-.44-.34-.67L216.3,331.6A29.13,29.13,0,0,0,185.49,315.79Z" transform="translate(-87.38 -90.86)" style="fill:#437ba6;fill-rule:evenodd"/><path d="M201.66,293.94l-26.81,19a1.29,1.29,0,0,1-1.81-.31,1.3,1.3,0,0,1-.12-1.32l31.24-65.27-24.53,11.81a1.3,1.3,0,0,1-1.74-.61,1.26,1.26,0,0,1,0-1.09l27.77-62.57-16.58,8.79a1.31,1.31,0,0,1-1.76-.54,1.34,1.34,0,0,1,0-1.17l21.95-46.33Zm96.17-169.76-23.62,26.23a2.17,2.17,0,0,1-3.67-2.16l6.64-19.4-40,29.26a2.17,2.17,0,0,1-3.26-2.66l13.52-29.4Z" transform="translate(-87.38 -90.86)" style="fill:#334e62;fill-rule:evenodd"/><path d="M176.94,407.09l-19.09,3.8a1.3,1.3,0,0,0-1,1.53,1.19,1.19,0,0,0,.14.4l2.73,4.75-16.29,4.27a1.3,1.3,0,0,0-.93,1.59,1.25,1.25,0,0,0,.38.63l3.55,3.26-17.24,4.39a1.3,1.3,0,0,0-.14,2.48l5.54,2.14-18.71,7.23a1.3,1.3,0,0,0-.74,1.69,1.29,1.29,0,0,0,.95.8l7.15,1.48Z" transform="translate(-87.38 -90.86)" style="fill:#334e62;fill-rule:evenodd"/><path d="M365.11,217.79c-.05,2.59-13.22-12.08-29.8-48.72q-8.9-19.63-28.95-78.21l25.28,42.24,5.15-28.76,9.64,53.73,7.67-12.86Q365.24,211.81,365.11,217.79Zm24.82-2.12c-1.18,1.62-3-13.56,2.71-44.23q3.08-16.45,16.29-62.61l-2.72,38.11,16-16-17.64,38.44L415,164.63Q392.64,211.93,389.93,215.67Z" transform="translate(-87.38 -90.86)" style="fill:#334e62;fill-rule:evenodd"/><path d="M390.39,227.54a.43.43,0,0,1-.56.24.42.42,0,0,1-.25-.56c4-10.1,11.18-12.66,21.25-7.62,2.8,1.4,5.7,4.06,9.13,8.16,1.38,1.66,2.83,3.53,4.63,5.94,1,1.29,4.3,5.84,4.76,6.46,6.42,8.67,10.68,13.56,15.41,17,6,4.44,11.8,5.52,17.87,2.75,2.23-1,4.23-2,6-3a13.32,13.32,0,0,0,2.67-21.39,7.82,7.82,0,0,0-11.05.36,9.33,9.33,0,0,0-.64.77l-1.25,1.74a.42.42,0,0,1-.6.1.43.43,0,0,1-.1-.61l1.25-1.73a9.72,9.72,0,0,1,.7-.86,8.69,8.69,0,0,1,12.28-.4,14,14,0,0,1,2.73,3.49,14.2,14.2,0,0,1-5.57,19.29q-2.71,1.5-6.07,3c-6.39,2.91-12.52,1.78-18.76-2.84-4.82-3.56-9.11-8.5-15.58-17.23-.47-.62-3.81-5.17-4.77-6.46-1.79-2.4-3.23-4.25-4.6-5.9-3.36-4-6.18-6.61-8.85-7.94C400.81,215.56,394.21,217.93,390.39,227.54Zm-30.16,1.31c-3.81-9.62-10.42-12-20.05-7.17-3.55,1.78-7.06,6-11.64,13.51-.75,1.23-1.54,2.56-2.48,4.16l-1.24,2.14-1.26,2.17c-6,10.32-9.38,15.32-13.49,19.06-5.43,4.94-10.86,5.67-16.64,1.46-9.82-7.15-11.57-15.22-5.17-24a9.18,9.18,0,0,1,16.05,2.23.43.43,0,0,1-.26.55.43.43,0,0,1-.56-.25,8.31,8.31,0,0,0-14.53-2c-6.1,8.4-4.47,15.94,5,22.82,5.42,3.95,10.4,3.27,15.55-1.4,4-3.66,7.38-8.62,13.32-18.86.28-.49,1.31-2.25,1.25-2.16l1.25-2.15c.94-1.61,1.73-2.94,2.49-4.17,4.66-7.62,8.24-12,12-13.84,10.08-5,17.24-2.47,21.25,7.62a.44.44,0,0,1-.24.57A.45.45,0,0,1,360.23,228.85Z" transform="translate(-87.38 -90.86)" style="fill:#334e62"/><path d="M360.64,228.61q9.5.94,12.82,5.87T371.29,248Z" transform="translate(-87.38 -90.86)" style="fill:#437ba6;fill-rule:evenodd"/></svg>